<svg xmlns="http://www.w3.org/2000/svg" viewBox="0 0 387.36 386.42"><defs><style>.cls-1{fill:#e6ebec;}.cls-2{fill:none;}.cls-3{font-size:9.5px;fill:#d1d3d4;font-family:ActionComics, Action Comics;}.cls-4{letter-spacing:-0.15em;}.cls-5{letter-spacing:-0.12em;}.cls-6{letter-spacing:-0.45em;}.cls-7{letter-spacing:-0.3em;}.cls-8{letter-spacing:-0.07em;}.cls-9{letter-spacing:-0.03em;}.cls-10{letter-spacing:-0.36em;}.cls-11{letter-spacing:-0.14em;}</style></defs><title>Asset 4</title><g id="Layer_2" data-name="Layer 2"><g id="Layer_1-2" data-name="Layer 1"><rect class="cls-1" x="1.36" y="0.42" width="386" height="386"/><line class="cls-2" x1="248.72" y1="7.48" x2="249.78" y2="8.53"/><line class="cls-2" x1="0.3" y1="289.92" x2="289.8" y2="0.42"/><text class="cls-3" transform="translate(8.62 90.87) rotate(-45)"><tspan class="cls-4">M</tspan><tspan class="cls-5" x="14.83" y="0">O</tspan><tspan class="cls-6" x="26.6" y="0">V</tspan><tspan class="cls-7" x="36.03" y="0">I</tspan><tspan class="cls-8" x="42.83" y="0">E</tspan><tspan class="cls-9" x="54.01" y="0">S</tspan><tspan class="cls-10" x="70.31" y="0">T</tspan><tspan x="80.03" y="0">A</tspan><tspan class="cls-11" x="91.15" y="0">C</tspan><tspan x="100.72" y="0">K</tspan></text><text class="cls-3" transform="translate(104.62 91.87) rotate(-45)"><tspan class="cls-4">M</tspan><tspan class="cls-5" x="14.83" y="0">O</tspan><tspan class="cls-6" x="26.6" y="0">V</tspan><tspan class="cls-7" x="36.03" y="0">I</tspan><tspan class="cls-8" x="42.83" y="0">E</tspan><tspan class="cls-9" x="54.01" y="0">S</tspan><tspan class="cls-10" x="70.31" y="0">T</tspan><tspan x="80.03" y="0">A</tspan><tspan class="cls-11" x="91.15" y="0">C</tspan><tspan x="100.72" y="0">K</tspan></text><text class="cls-3" transform="translate(8.62 186.37) rotate(-45)"><tspan class="cls-4">M</tspan><tspan class="cls-5" x="14.83" y="0">O</tspan><tspan class="cls-6" x="26.6" y="0">V</tspan><tspan class="cls-7" x="36.03" y="0">I</tspan><tspan class="cls-8" x="42.83" y="0">E</tspan><tspan class="cls-9" x="54.01" y="0">S</tspan><tspan class="cls-10" x="70.31" y="0">T</tspan><tspan x="80.03" y="0">A</tspan><tspan class="cls-11" x="91.15" y="0">C</tspan><tspan x="100.72" y="0">K</tspan></text><text class="cls-3" transform="translate(104.87 187.87) rotate(-45)"><tspan class="cls-4">M</tspan><tspan class="cls-5" x="14.83" y="0">O</tspan><tspan class="cls-6" x="26.6" y="0">V</tspan><tspan class="cls-7" x="36.03" y="0">I</tspan><tspan class="cls-8" x="42.83" y="0">E</tspan><tspan class="cls-9" x="54.01" y="0">S</tspan><tspan class="cls-10" x="70.31" y="0">T</tspan><tspan x="80.03" y="0">A</tspan><tspan class="cls-11" x="91.15" y="0">C</tspan><tspan x="100.72" y="0">K</tspan></text><text class="cls-3" transform="translate(9.87 282.37) rotate(-45)"><tspan class="cls-4">M</tspan><tspan class="cls-5" x="14.83" y="0">O</tspan><tspan class="cls-6" x="26.6" y="0">V</tspan><tspan class="cls-7" x="36.03" y="0">I</tspan><tspan class="cls-8" x="42.83" y="0">E</tspan><tspan class="cls-9" x="54.01" y="0">S</tspan><tspan class="cls-10" x="70.31" y="0">T</tspan><tspan x="80.03" y="0">A</tspan><tspan class="cls-11" x="91.15" y="0">C</tspan><tspan x="100.72" y="0">K</tspan></text><text class="cls-3" transform="translate(201.12 91.87) rotate(-45)"><tspan class="cls-4">M</tspan><tspan class="cls-5" x="14.83" y="0">O</tspan><tspan class="cls-6" x="26.6" y="0">V</tspan><tspan class="cls-7" x="36.03" y="0">I</tspan><tspan class="cls-8" x="42.83" y="0">E</tspan><tspan class="cls-9" x="54.01" y="0">S</tspan><tspan class="cls-10" x="70.31" y="0">T</tspan><tspan x="80.03" y="0">A</tspan><tspan class="cls-11" x="91.15" y="0">C</tspan><tspan x="100.72" y="0">K</tspan></text><text class="cls-3" transform="translate(105.87 284.37) rotate(-45)"><tspan class="cls-4">M</tspan><tspan class="cls-5" x="14.83" y="0">O</tspan><tspan class="cls-6" x="26.6" y="0">V</tspan><tspan class="cls-7" x="36.03" y="0">I</tspan><tspan class="cls-8" x="42.83" y="0">E</tspan><tspan class="cls-9" x="54.01" y="0">S</tspan><tspan class="cls-10" x="70.31" y="0">T</tspan><tspan x="80.03" y="0">A</tspan><tspan class="cls-11" x="91.15" y="0">C</tspan><tspan x="100.72" y="0">K</tspan></text><text class="cls-3" transform="translate(9.87 379.87) rotate(-45)"><tspan class="cls-4">M</tspan><tspan class="cls-5" x="14.83" y="0">O</tspan><tspan class="cls-6" x="26.6" y="0">V</tspan><tspan class="cls-7" x="36.03" y="0">I</tspan><tspan class="cls-8" x="42.83" y="0">E</tspan><tspan class="cls-9" x="54.01" y="0">S</tspan><tspan class="cls-10" x="70.31" y="0">T</tspan><tspan x="80.03" y="0">A</tspan><tspan class="cls-11" x="91.15" y="0">C</tspan><tspan x="100.72" y="0">K</tspan></text><text class="cls-3" transform="translate(299.87 91.87) rotate(-45)"><tspan class="cls-4">M</tspan><tspan class="cls-5" x="14.83" y="0">O</tspan><tspan class="cls-6" x="26.6" y="0">V</tspan><tspan class="cls-7" x="36.03" y="0">I</tspan><tspan class="cls-8" x="42.83" y="0">E</tspan><tspan class="cls-9" x="54.01" y="0">S</tspan><tspan class="cls-10" x="70.31" y="0">T</tspan><tspan x="80.03" y="0">A</tspan><tspan class="cls-11" x="91.15" y="0">C</tspan><tspan x="100.72" y="0">K</tspan></text><text class="cls-3" transform="translate(203.87 187.37) rotate(-45)"><tspan class="cls-4">M</tspan><tspan class="cls-5" x="14.83" y="0">O</tspan><tspan class="cls-6" x="26.6" y="0">V</tspan><tspan class="cls-7" x="36.03" y="0">I</tspan><tspan class="cls-8" x="42.83" y="0">E</tspan><tspan class="cls-9" x="54.01" y="0">S</tspan><tspan class="cls-10" x="70.31" y="0">T</tspan><tspan x="80.03" y="0">A</tspan><tspan class="cls-11" x="91.15" y="0">C</tspan><tspan x="100.72" y="0">K</tspan></text><text class="cls-3" transform="translate(201.62 285.11) rotate(-45)"><tspan class="cls-4">M</tspan><tspan class="cls-5" x="14.83" y="0">O</tspan><tspan class="cls-6" x="26.6" y="0">V</tspan><tspan class="cls-7" x="36.03" y="0">I</tspan><tspan class="cls-8" x="42.83" y="0">E</tspan><tspan class="cls-9" x="54.01" y="0">S</tspan><tspan class="cls-10" x="70.31" y="0">T</tspan><tspan x="80.03" y="0">A</tspan><tspan class="cls-11" x="91.15" y="0">C</tspan><tspan x="100.72" y="0">K</tspan></text><text class="cls-3" transform="translate(106.62 379.61) rotate(-45)"><tspan class="cls-4">M</tspan><tspan class="cls-5" x="14.83" y="0">O</tspan><tspan class="cls-6" x="26.6" y="0">V</tspan><tspan class="cls-7" x="36.03" y="0">I</tspan><tspan class="cls-8" x="42.83" y="0">E</tspan><tspan class="cls-9" x="54.01" y="0">S</tspan><tspan class="cls-10" x="70.31" y="0">T</tspan><tspan x="80.03" y="0">A</tspan><tspan class="cls-11" x="91.15" y="0">C</tspan><tspan x="100.72" y="0">K</tspan></text><text class="cls-3" transform="translate(299.12 189.11) rotate(-45)"><tspan class="cls-4">M</tspan><tspan class="cls-5" x="14.83" y="0">O</tspan><tspan class="cls-6" x="26.6" y="0">V</tspan><tspan class="cls-7" x="36.03" y="0">I</tspan><tspan class="cls-8" x="42.83" y="0">E</tspan><tspan class="cls-9" x="54.01" y="0">S</tspan><tspan class="cls-10" x="70.31" y="0">T</tspan><tspan x="80.03" y="0">A</tspan><tspan class="cls-11" x="91.15" y="0">C</tspan><tspan x="100.72" y="0">K</tspan></text><text class="cls-3" transform="translate(299.87 285.11) rotate(-45)"><tspan class="cls-4">M</tspan><tspan class="cls-5" x="14.83" y="0">O</tspan><tspan class="cls-6" x="26.6" y="0">V</tspan><tspan class="cls-7" x="36.03" y="0">I</tspan><tspan class="cls-8" x="42.83" y="0">E</tspan><tspan class="cls-9" x="54.01" y="0">S</tspan><tspan class="cls-10" x="70.31" y="0">T</tspan><tspan x="80.03" y="0">A</tspan><tspan class="cls-11" x="91.15" y="0">C</tspan><tspan x="100.72" y="0">K</tspan></text><text class="cls-3" transform="translate(203.87 379.61) rotate(-45)"><tspan class="cls-4">M</tspan><tspan class="cls-5" x="14.83" y="0">O</tspan><tspan class="cls-6" x="26.6" y="0">V</tspan><tspan class="cls-7" x="36.03" y="0">I</tspan><tspan class="cls-8" x="42.83" y="0">E</tspan><tspan class="cls-9" x="54.01" y="0">S</tspan><tspan class="cls-10" x="70.31" y="0">T</tspan><tspan x="80.03" y="0">A</tspan><tspan class="cls-11" x="91.15" y="0">C</tspan><tspan x="100.72" y="0">K</tspan></text><text class="cls-3" transform="translate(299.87 380.86) rotate(-45)"><tspan class="cls-4">M</tspan><tspan class="cls-5" x="14.83" y="0">O</tspan><tspan class="cls-6" x="26.6" y="0">V</tspan><tspan class="cls-7" x="36.03" y="0">I</tspan><tspan class="cls-8" x="42.83" y="0">E</tspan><tspan class="cls-9" x="54.01" y="0">S</tspan><tspan class="cls-10" x="70.31" y="0">T</tspan><tspan x="80.03" y="0">A</tspan><tspan class="cls-11" x="91.15" y="0">C</tspan><tspan x="100.72" y="0">K</tspan></text></g></g></svg>