<?xml version="1.0" encoding="UTF-8" standalone="no"?>
<!DOCTYPE svg PUBLIC "-//W3C//DTD SVG 1.1//EN"
 "http://www.w3.org/Graphics/SVG/1.1/DTD/svg11.dtd">
<!-- Generated by graphviz version 2.40.1 (20161225.0304)
 -->
<!-- Title: dependencies Pages: 1 -->
<svg width="2714pt" height="284pt"
 viewBox="0.00 0.00 2714.00 284.00" xmlns="http://www.w3.org/2000/svg" xmlns:xlink="http://www.w3.org/1999/xlink">
<g id="graph0" class="graph" transform="scale(1 1) rotate(0) translate(4 280)">
<title>dependencies</title>
<polygon fill="#ffffff" stroke="transparent" points="-4,4 -4,-280 2710,-280 2710,4 -4,4"/>
<text text-anchor="start" x="1332.0091" y="-42.4" font-family="sans-serif" font-weight="bold" font-size="14.00" fill="#000000">Legend</text>
<polygon fill="#ffffb3" stroke="transparent" points="1119,-10 1119,-30 1139,-30 1139,-10 1119,-10"/>
<text text-anchor="start" x="1142.629" y="-15.4" font-family="sans-serif" font-size="14.00" fill="#000000"> &#160;Declarations</text>
<polygon fill="#8dd3c7" stroke="transparent" points="1232,-10 1232,-30 1252,-30 1252,-10 1232,-10"/>
<text text-anchor="start" x="1255.7251" y="-15.4" font-family="sans-serif" font-size="14.00" fill="#000000"> &#160;Module</text>
<polygon fill="#80b1d3" stroke="transparent" points="1318,-10 1318,-30 1338,-30 1338,-10 1318,-10"/>
<text text-anchor="start" x="1341.7812" y="-15.4" font-family="sans-serif" font-size="14.00" fill="#000000"> &#160;Bootstrap</text>
<polygon fill="#fdb462" stroke="transparent" points="1415,-10 1415,-30 1435,-30 1435,-10 1415,-10"/>
<text text-anchor="start" x="1438.6732" y="-15.4" font-family="sans-serif" font-size="14.00" fill="#000000"> &#160;Providers</text>
<polygon fill="#fb8072" stroke="transparent" points="1511,-10 1511,-30 1531,-30 1531,-10 1511,-10"/>
<text text-anchor="start" x="1534.7258" y="-15.4" font-family="sans-serif" font-size="14.00" fill="#000000"> &#160;Exports</text>
<g id="clust1" class="cluster">
<title>cluster_AppModule</title>
<polygon fill="none" stroke="#000000" stroke-dasharray="1,5" points="8,-70 8,-268 2698,-268 2698,-70 8,-70"/>
</g>
<g id="clust2" class="cluster">
<title>cluster_AppModule_declarations</title>
<polygon fill="none" stroke="#000000" points="516,-78 516,-130 2690,-130 2690,-78 516,-78"/>
</g>
<g id="clust18" class="cluster">
<title>cluster_AppModule_bootstrap</title>
<polygon fill="none" stroke="#000000" points="1284,-208 1284,-260 1408,-260 1408,-208 1284,-208"/>
</g>
<g id="clust19" class="cluster">
<title>cluster_AppModule_providers</title>
<polygon fill="none" stroke="#000000" points="16,-78 16,-130 508,-130 508,-78 16,-78"/>
</g>
<!-- AddAMoviePageComponent -->
<g id="node1" class="node">
<title>AddAMoviePageComponent</title>
<polygon fill="#ffffb3" stroke="#000000" points="2681.8075,-122 2502.1925,-122 2502.1925,-86 2681.8075,-86 2681.8075,-122"/>
<text text-anchor="middle" x="2592" y="-99.8" font-family="Times,serif" font-size="14.00" fill="#000000">AddAMoviePageComponent</text>
</g>
<!-- AppModule -->
<g id="node14" class="node">
<title>AppModule</title>
<polygon fill="#8dd3c7" stroke="#000000" points="1387.6571,-187 1384.6571,-191 1363.6571,-191 1360.6571,-187 1304.3429,-187 1304.3429,-151 1387.6571,-151 1387.6571,-187"/>
<text text-anchor="middle" x="1346" y="-164.8" font-family="Times,serif" font-size="14.00" fill="#000000">AppModule</text>
</g>
<!-- AddAMoviePageComponent&#45;&gt;AppModule -->
<g id="edge1" class="edge">
<title>AddAMoviePageComponent&#45;&gt;AppModule</title>
<path fill="none" stroke="#000000" d="M2592,-122.3228C2592,-145.6602 2592,-183 2592,-183 2592,-183 1397.8129,-183 1397.8129,-183"/>
<polygon fill="#000000" stroke="#000000" points="1397.813,-179.5001 1387.8129,-183 1397.8129,-186.5001 1397.813,-179.5001"/>
</g>
<!-- AppComponent -->
<g id="node2" class="node">
<title>AppComponent</title>
<polygon fill="#ffffb3" stroke="#000000" points="2484.9399,-122 2379.0601,-122 2379.0601,-86 2484.9399,-86 2484.9399,-122"/>
<text text-anchor="middle" x="2432" y="-99.8" font-family="Times,serif" font-size="14.00" fill="#000000">AppComponent</text>
</g>
<!-- AppComponent&#45;&gt;AppModule -->
<g id="edge2" class="edge">
<title>AppComponent&#45;&gt;AppModule</title>
<path fill="none" stroke="#000000" d="M2432,-122.2921C2432,-144.2057 2432,-178 2432,-178 2432,-178 1397.9071,-178 1397.9071,-178"/>
<polygon fill="#000000" stroke="#000000" points="1397.9071,-174.5001 1387.9071,-178 1397.907,-181.5001 1397.9071,-174.5001"/>
</g>
<!-- DirectorSheetComponent -->
<g id="node3" class="node">
<title>DirectorSheetComponent</title>
<polygon fill="#ffffb3" stroke="#000000" points="2361.573,-122 2202.427,-122 2202.427,-86 2361.573,-86 2361.573,-122"/>
<text text-anchor="middle" x="2282" y="-99.8" font-family="Times,serif" font-size="14.00" fill="#000000">DirectorSheetComponent</text>
</g>
<!-- DirectorSheetComponent&#45;&gt;AppModule -->
<g id="edge3" class="edge">
<title>DirectorSheetComponent&#45;&gt;AppModule</title>
<path fill="none" stroke="#000000" d="M2282,-122.0267C2282,-142.7672 2282,-174 2282,-174 2282,-174 1397.7309,-174 1397.7309,-174"/>
<polygon fill="#000000" stroke="#000000" points="1397.7309,-170.5001 1387.7309,-174 1397.7309,-177.5001 1397.7309,-170.5001"/>
</g>
<!-- FooterComponent -->
<g id="node4" class="node">
<title>FooterComponent</title>
<polygon fill="#ffffb3" stroke="#000000" points="2184.8809,-122 2067.1191,-122 2067.1191,-86 2184.8809,-86 2184.8809,-122"/>
<text text-anchor="middle" x="2126" y="-99.8" font-family="Times,serif" font-size="14.00" fill="#000000">FooterComponent</text>
</g>
<!-- FooterComponent&#45;&gt;AppModule -->
<g id="edge4" class="edge">
<title>FooterComponent&#45;&gt;AppModule</title>
<path fill="none" stroke="#000000" d="M2126,-122.1061C2126,-141.3391 2126,-169 2126,-169 2126,-169 1397.6604,-169 1397.6604,-169"/>
<polygon fill="#000000" stroke="#000000" points="1397.6605,-165.5001 1387.6604,-169 1397.6604,-172.5001 1397.6605,-165.5001"/>
</g>
<!-- GenreSuggestionComponent -->
<g id="node5" class="node">
<title>GenreSuggestionComponent</title>
<polygon fill="#ffffb3" stroke="#000000" points="2048.752,-122 1871.248,-122 1871.248,-86 2048.752,-86 2048.752,-122"/>
<text text-anchor="middle" x="1960" y="-99.8" font-family="Times,serif" font-size="14.00" fill="#000000">GenreSuggestionComponent</text>
</g>
<!-- GenreSuggestionComponent&#45;&gt;AppModule -->
<g id="edge5" class="edge">
<title>GenreSuggestionComponent&#45;&gt;AppModule</title>
<path fill="none" stroke="#000000" d="M1960,-122.302C1960,-140.2699 1960,-165 1960,-165 1960,-165 1397.72,-165 1397.72,-165"/>
<polygon fill="#000000" stroke="#000000" points="1397.72,-161.5001 1387.72,-165 1397.72,-168.5001 1397.72,-161.5001"/>
</g>
<!-- MovieListComponent -->
<g id="node6" class="node">
<title>MovieListComponent</title>
<polygon fill="#ffffb3" stroke="#000000" points="1852.661,-122 1713.339,-122 1713.339,-86 1852.661,-86 1852.661,-122"/>
<text text-anchor="middle" x="1783" y="-99.8" font-family="Times,serif" font-size="14.00" fill="#000000">MovieListComponent</text>
</g>
<!-- MovieListComponent&#45;&gt;AppModule -->
<g id="edge6" class="edge">
<title>MovieListComponent&#45;&gt;AppModule</title>
<path fill="none" stroke="#000000" d="M1783,-122.027C1783,-138.3976 1783,-160 1783,-160 1783,-160 1397.9014,-160 1397.9014,-160"/>
<polygon fill="#000000" stroke="#000000" points="1397.9014,-156.5001 1387.9014,-160 1397.9014,-163.5001 1397.9014,-156.5001"/>
</g>
<!-- MovieSheetComponent -->
<g id="node7" class="node">
<title>MovieSheetComponent</title>
<polygon fill="#ffffb3" stroke="#000000" points="1695.4846,-122 1546.5154,-122 1546.5154,-86 1695.4846,-86 1695.4846,-122"/>
<text text-anchor="middle" x="1621" y="-99.8" font-family="Times,serif" font-size="14.00" fill="#000000">MovieSheetComponent</text>
</g>
<!-- MovieSheetComponent&#45;&gt;AppModule -->
<g id="edge7" class="edge">
<title>MovieSheetComponent&#45;&gt;AppModule</title>
<path fill="none" stroke="#000000" d="M1621,-122.1871C1621,-137.1824 1621,-156 1621,-156 1621,-156 1397.7666,-156 1397.7666,-156"/>
<polygon fill="#000000" stroke="#000000" points="1397.7666,-152.5001 1387.7666,-156 1397.7665,-159.5001 1397.7666,-152.5001"/>
</g>
<!-- MovieSuggestionComponent -->
<g id="node8" class="node">
<title>MovieSuggestionComponent</title>
<polygon fill="#ffffb3" stroke="#000000" points="1528.1052,-122 1347.8948,-122 1347.8948,-86 1528.1052,-86 1528.1052,-122"/>
<text text-anchor="middle" x="1438" y="-99.8" font-family="Times,serif" font-size="14.00" fill="#000000">MovieSuggestionComponent</text>
</g>
<!-- MovieSuggestionComponent&#45;&gt;AppModule -->
<g id="edge8" class="edge">
<title>MovieSuggestionComponent&#45;&gt;AppModule</title>
<path fill="none" stroke="#000000" d="M1367.8878,-122.1061C1367.8878,-122.1061 1367.8878,-140.991 1367.8878,-140.991"/>
<polygon fill="#000000" stroke="#000000" points="1364.3879,-140.9909 1367.8878,-150.991 1371.3879,-140.991 1364.3879,-140.9909"/>
</g>
<!-- OpinionListComponent -->
<g id="node9" class="node">
<title>OpinionListComponent</title>
<polygon fill="#ffffb3" stroke="#000000" points="1329.4986,-122 1180.5014,-122 1180.5014,-86 1329.4986,-86 1329.4986,-122"/>
<text text-anchor="middle" x="1255" y="-99.8" font-family="Times,serif" font-size="14.00" fill="#000000">OpinionListComponent</text>
</g>
<!-- OpinionListComponent&#45;&gt;AppModule -->
<g id="edge9" class="edge">
<title>OpinionListComponent&#45;&gt;AppModule</title>
<path fill="none" stroke="#000000" d="M1316.8356,-122.1061C1316.8356,-122.1061 1316.8356,-140.991 1316.8356,-140.991"/>
<polygon fill="#000000" stroke="#000000" points="1313.3356,-140.9909 1316.8356,-150.991 1320.3356,-140.991 1313.3356,-140.9909"/>
</g>
<!-- OpinionMineComponent -->
<g id="node10" class="node">
<title>OpinionMineComponent</title>
<polygon fill="#ffffb3" stroke="#000000" points="1162.2702,-122 1005.7298,-122 1005.7298,-86 1162.2702,-86 1162.2702,-122"/>
<text text-anchor="middle" x="1084" y="-99.8" font-family="Times,serif" font-size="14.00" fill="#000000">OpinionMineComponent</text>
</g>
<!-- OpinionMineComponent&#45;&gt;AppModule -->
<g id="edge10" class="edge">
<title>OpinionMineComponent&#45;&gt;AppModule</title>
<path fill="none" stroke="#000000" d="M1084,-122.1871C1084,-137.1824 1084,-156 1084,-156 1084,-156 1294.1956,-156 1294.1956,-156"/>
<polygon fill="#000000" stroke="#000000" points="1294.1956,-159.5001 1304.1956,-156 1294.1956,-152.5001 1294.1956,-159.5001"/>
</g>
<!-- StarRatingComponent -->
<g id="node11" class="node">
<title>StarRatingComponent</title>
<polygon fill="#ffffb3" stroke="#000000" points="987.7134,-122 846.2866,-122 846.2866,-86 987.7134,-86 987.7134,-122"/>
<text text-anchor="middle" x="917" y="-99.8" font-family="Times,serif" font-size="14.00" fill="#000000">StarRatingComponent</text>
</g>
<!-- StarRatingComponent&#45;&gt;AppModule -->
<g id="edge11" class="edge">
<title>StarRatingComponent&#45;&gt;AppModule</title>
<path fill="none" stroke="#000000" d="M917,-122.027C917,-138.3976 917,-160 917,-160 917,-160 1294.0846,-160 1294.0846,-160"/>
<polygon fill="#000000" stroke="#000000" points="1294.0846,-163.5001 1304.0846,-160 1294.0845,-156.5001 1294.0846,-163.5001"/>
</g>
<!-- TopBarComponent -->
<g id="node12" class="node">
<title>TopBarComponent</title>
<polygon fill="#ffffb3" stroke="#000000" points="828.0968,-122 703.9032,-122 703.9032,-86 828.0968,-86 828.0968,-122"/>
<text text-anchor="middle" x="766" y="-99.8" font-family="Times,serif" font-size="14.00" fill="#000000">TopBarComponent</text>
</g>
<!-- TopBarComponent&#45;&gt;AppModule -->
<g id="edge12" class="edge">
<title>TopBarComponent&#45;&gt;AppModule</title>
<path fill="none" stroke="#000000" d="M766,-122.302C766,-140.2699 766,-165 766,-165 766,-165 1294.2878,-165 1294.2878,-165"/>
<polygon fill="#000000" stroke="#000000" points="1294.2879,-168.5001 1304.2878,-165 1294.2878,-161.5001 1294.2879,-168.5001"/>
</g>
<!-- WelcomePageComponent -->
<g id="node13" class="node">
<title>WelcomePageComponent</title>
<polygon fill="#ffffb3" stroke="#000000" points="686.1839,-122 523.8161,-122 523.8161,-86 686.1839,-86 686.1839,-122"/>
<text text-anchor="middle" x="605" y="-99.8" font-family="Times,serif" font-size="14.00" fill="#000000">WelcomePageComponent</text>
</g>
<!-- WelcomePageComponent&#45;&gt;AppModule -->
<g id="edge13" class="edge">
<title>WelcomePageComponent&#45;&gt;AppModule</title>
<path fill="none" stroke="#000000" d="M605,-122.1061C605,-141.3391 605,-169 605,-169 605,-169 1294.3055,-169 1294.3055,-169"/>
<polygon fill="#000000" stroke="#000000" points="1294.3056,-172.5001 1304.3055,-169 1294.3055,-165.5001 1294.3056,-172.5001"/>
</g>
<!-- AppComponent  -->
<g id="node15" class="node">
<title>AppComponent </title>
<polygon fill="#80b1d3" stroke="#000000" points="1400.439,-252 1291.561,-252 1291.561,-216 1400.439,-216 1400.439,-252"/>
<text text-anchor="middle" x="1346" y="-229.8" font-family="Times,serif" font-size="14.00" fill="#000000">AppComponent </text>
</g>
<!-- AppModule&#45;&gt;AppComponent  -->
<g id="edge14" class="edge">
<title>AppModule&#45;&gt;AppComponent </title>
<path fill="none" stroke="#000000" stroke-dasharray="1,5" d="M1346,-187.1061C1346,-187.1061 1346,-205.991 1346,-205.991"/>
<polygon fill="#000000" stroke="#000000" points="1342.5001,-205.9909 1346,-215.991 1349.5001,-205.991 1342.5001,-205.9909"/>
</g>
<!-- DirectorService -->
<g id="node16" class="node">
<title>DirectorService</title>
<ellipse fill="#fdb462" stroke="#000000" cx="428" cy="-104" rx="72.3245" ry="18"/>
<text text-anchor="middle" x="428" y="-99.8" font-family="Times,serif" font-size="14.00" fill="#000000">DirectorService</text>
</g>
<!-- DirectorService&#45;&gt;AppModule -->
<g id="edge15" class="edge">
<title>DirectorService&#45;&gt;AppModule</title>
<path fill="none" stroke="#000000" d="M428,-122.0267C428,-142.7672 428,-174 428,-174 428,-174 1294.17,-174 1294.17,-174"/>
<polygon fill="#000000" stroke="#000000" points="1294.17,-177.5001 1304.17,-174 1294.17,-170.5001 1294.17,-177.5001"/>
</g>
<!-- MovieBuffService -->
<g id="node17" class="node">
<title>MovieBuffService</title>
<ellipse fill="#fdb462" stroke="#000000" cx="255" cy="-104" rx="82.8032" ry="18"/>
<text text-anchor="middle" x="255" y="-99.8" font-family="Times,serif" font-size="14.00" fill="#000000">MovieBuffService</text>
</g>
<!-- MovieBuffService&#45;&gt;AppModule -->
<g id="edge16" class="edge">
<title>MovieBuffService&#45;&gt;AppModule</title>
<path fill="none" stroke="#000000" d="M255,-122.2921C255,-144.2057 255,-178 255,-178 255,-178 1294.2325,-178 1294.2325,-178"/>
<polygon fill="#000000" stroke="#000000" points="1294.2325,-181.5001 1304.2325,-178 1294.2324,-174.5001 1294.2325,-181.5001"/>
</g>
<!-- MovieService -->
<g id="node18" class="node">
<title>MovieService</title>
<ellipse fill="#fdb462" stroke="#000000" cx="89" cy="-104" rx="65.4072" ry="18"/>
<text text-anchor="middle" x="89" y="-99.8" font-family="Times,serif" font-size="14.00" fill="#000000">MovieService</text>
</g>
<!-- MovieService&#45;&gt;AppModule -->
<g id="edge17" class="edge">
<title>MovieService&#45;&gt;AppModule</title>
<path fill="none" stroke="#000000" d="M89,-122.3228C89,-145.6602 89,-183 89,-183 89,-183 1294.1774,-183 1294.1774,-183"/>
<polygon fill="#000000" stroke="#000000" points="1294.1774,-186.5001 1304.1774,-183 1294.1773,-179.5001 1294.1774,-186.5001"/>
</g>
</g>
</svg>
